<svg viewBox="0 0 1000 780" xmlns="http://www.w3.org/2000/svg" font-family="'Inter', 'Helvetica Neue', Arial, sans-serif">
<defs>
  <linearGradient id="gProcess" x1="0" y1="0" x2="1" y2="1"><stop offset="0%" stop-color="#dbeafe"/><stop offset="100%" stop-color="#93c5fd"/></linearGradient>
  <linearGradient id="gFile" x1="0" y1="0" x2="1" y2="1"><stop offset="0%" stop-color="#d1fae5"/><stop offset="100%" stop-color="#6ee7b7"/></linearGradient>
  <linearGradient id="gSage" x1="0" y1="0" x2="0" y2="1"><stop offset="0%" stop-color="#e0f2fe"/><stop offset="100%" stop-color="#bae6fd"/></linearGradient>
  <linearGradient id="gContrast" x1="0" y1="0" x2="1" y2="1"><stop offset="0%" stop-color="#fef3c7"/><stop offset="100%" stop-color="#fde68a"/></linearGradient>
  <linearGradient id="gSteering" x1="0" y1="0" x2="1" y2="1"><stop offset="0%" stop-color="#ede9fe"/><stop offset="100%" stop-color="#c4b5fd"/></linearGradient>
  <linearGradient id="gEmbed" x1="0" y1="0" x2="0" y2="1"><stop offset="0%" stop-color="#ccfbf1"/><stop offset="100%" stop-color="#99f6e4"/></linearGradient>
  <linearGradient id="gReal" x1="0" y1="0" x2="1" y2="0"><stop offset="0%" stop-color="#bbf7d0"/><stop offset="100%" stop-color="#86efac"/></linearGradient>
  <linearGradient id="gFake" x1="0" y1="0" x2="1" y2="0"><stop offset="0%" stop-color="#fecaca"/><stop offset="100%" stop-color="#fca5a5"/></linearGradient>
  <marker id="arw" markerWidth="7" markerHeight="7" refX="6" refY="3.5" orient="auto"><path d="M0,0.5 L6,3.5 L0,6.5 Z" fill="#94a3b8"/></marker>
  <marker id="arwB" markerWidth="7" markerHeight="7" refX="6" refY="3.5" orient="auto"><path d="M0,0.5 L6,3.5 L0,6.5 Z" fill="#60a5fa"/></marker>
  <marker id="arwG" markerWidth="7" markerHeight="7" refX="6" refY="3.5" orient="auto"><path d="M0,0.5 L6,3.5 L0,6.5 Z" fill="#34d399"/></marker>
  <marker id="arwP" markerWidth="7" markerHeight="7" refX="6" refY="3.5" orient="auto"><path d="M0,0.5 L6,3.5 L0,6.5 Z" fill="#a78bfa"/></marker>
  <marker id="arwR" markerWidth="7" markerHeight="7" refX="6" refY="3.5" orient="auto"><path d="M0,0.5 L6,3.5 L0,6.5 Z" fill="#f87171"/></marker>
  <marker id="arwO" markerWidth="7" markerHeight="7" refX="6" refY="3.5" orient="auto"><path d="M0,0.5 L6,3.5 L0,6.5 Z" fill="#f59e0b"/></marker>
  <filter id="shadow" x="-5%" y="-5%" width="110%" height="115%">
    <feDropShadow dx="0" dy="1.5" stdDeviation="2" flood-color="#94a3b8" flood-opacity="0.13"/>
  </filter>
</defs>

<rect width="1000" height="780" fill="#f1f5f9" rx="14"/>
<rect x="8" y="8" width="984" height="764" fill="#f8fafc" rx="11" stroke="#e2e8f0" stroke-width="1"/>

<text x="500" y="32" text-anchor="middle" font-size="15.5" font-weight="800" fill="#0f172a" letter-spacing="0.2">HeteroSAGE Architecture &amp; Steering Similarity Search</text>
<text x="500" y="50" text-anchor="middle" font-size="10" fill="#64748b">Heterogeneous graph construction  ·  typed message passing  ·  contrastive link prediction  ·  cosine retrieval</text>

<!-- SECTION A — HETEROGENEOUS GRAPH -->
<rect x="18" y="62" width="290" height="340" rx="10" fill="white" stroke="#e2e8f0" stroke-width="1.2" filter="url(#shadow)"/>
<rect x="18" y="62" width="290" height="26" rx="10" fill="#1e40af" opacity="0.08"/>
<text x="163" y="80" text-anchor="middle" font-size="11" font-weight="700" fill="#1e40af" letter-spacing="0.5">① HETEROGENEOUS GRAPH</text>

<circle cx="90" cy="145" r="22" fill="url(#gProcess)" stroke="#60a5fa" stroke-width="1.8" filter="url(#shadow)"/>
<text x="90" y="140" text-anchor="middle" font-size="9" font-weight="700" fill="#1e40af">P₁</text>
<text x="90" y="152" text-anchor="middle" font-size="7.5" fill="#1d4ed8">⚠ malicious</text>

<circle cx="185" cy="120" r="20" fill="url(#gProcess)" stroke="#93c5fd" stroke-width="1.4" filter="url(#shadow)"/>
<text x="185" y="115" text-anchor="middle" font-size="9" font-weight="700" fill="#1e40af">P₂</text>
<text x="185" y="127" text-anchor="middle" font-size="7.5" fill="#3b82f6">benign</text>

<circle cx="255" cy="155" r="20" fill="url(#gProcess)" stroke="#93c5fd" stroke-width="1.4" filter="url(#shadow)"/>
<text x="255" y="150" text-anchor="middle" font-size="9" font-weight="700" fill="#1e40af">P₃</text>
<text x="255" y="162" text-anchor="middle" font-size="7.5" fill="#3b82f6">benign</text>

<circle cx="100" cy="235" r="20" fill="url(#gProcess)" stroke="#60a5fa" stroke-width="1.8" filter="url(#shadow)"/>
<text x="100" y="230" text-anchor="middle" font-size="9" font-weight="700" fill="#1e40af">P₄</text>
<text x="100" y="242" text-anchor="middle" font-size="7.5" fill="#1d4ed8">⚠ malicious</text>

<circle cx="210" cy="240" r="19" fill="url(#gProcess)" stroke="#93c5fd" stroke-width="1.4" filter="url(#shadow)"/>
<text x="210" y="235" text-anchor="middle" font-size="9" font-weight="700" fill="#1e40af">P₅</text>
<text x="210" y="247" text-anchor="middle" font-size="7.5" fill="#3b82f6">benign</text>

<rect x="120" y="298" width="44" height="36" rx="7" fill="url(#gFile)" stroke="#34d399" stroke-width="1.4" filter="url(#shadow)"/>
<text x="142" y="313" text-anchor="middle" font-size="9" font-weight="700" fill="#065f46">F₁</text>
<text x="142" y="325" text-anchor="middle" font-size="7.5" fill="#047857">rare file</text>

<rect x="210" y="298" width="44" height="36" rx="7" fill="url(#gFile)" stroke="#34d399" stroke-width="1.4" filter="url(#shadow)"/>
<text x="232" y="313" text-anchor="middle" font-size="9" font-weight="700" fill="#065f46">F₂</text>
<text x="232" y="325" text-anchor="middle" font-size="7.5" fill="#047857">rare file</text>

<line x1="92" y1="167" x2="98" y2="214" stroke="#60a5fa" stroke-width="1.8" marker-end="url(#arwB)"/>
<text x="72" y="195" font-size="7.5" fill="#3b82f6" transform="rotate(-10,72,195)">parent_child</text>
<path d="M167,125 Q130,100 112,138" stroke="#a78bfa" stroke-width="1.4" fill="none" stroke-dasharray="4,2" marker-end="url(#arwP)"/>
<text x="118" y="103" font-size="7.5" fill="#7c3aed">same_user</text>
<path d="M111,138 Q170,105 236,148" stroke="#a78bfa" stroke-width="1.4" fill="none" stroke-dasharray="4,2" marker-end="url(#arwP)"/>
<line x1="104" y1="255" x2="132" y2="297" stroke="#34d399" stroke-width="1.5" marker-end="url(#arwG)"/>
<text x="96" y="282" font-size="7.5" fill="#059669">touches</text>
<line x1="200" y1="252" x2="158" y2="298" stroke="#34d399" stroke-width="1.5" marker-end="url(#arwG)"/>
<line x1="215" y1="259" x2="230" y2="297" stroke="#34d399" stroke-width="1.5" marker-end="url(#arwG)"/>
<line x1="128" y1="298" x2="107" y2="256" stroke="#34d399" stroke-width="1" stroke-dasharray="2,2" marker-end="url(#arwG)"/>
<text x="144" y="273" font-size="7" fill="#059669">touched_by</text>

<rect x="26" y="352" width="274" height="44" rx="6" fill="#f8fafc" stroke="#e2e8f0" stroke-width="0.8"/>
<circle cx="44" cy="366" r="6" fill="url(#gProcess)" stroke="#93c5fd" stroke-width="1"/>
<text x="55" y="370" font-size="8" fill="#334155">Process node  (5 features)</text>
<rect x="36" y="379" width="12" height="9" rx="2" fill="url(#gFile)" stroke="#34d399" stroke-width="0.8"/>
<text x="55" y="387" font-size="8" fill="#334155">File node  (rare: deg 2–15)</text>
<line x1="152" y1="365" x2="174" y2="365" stroke="#60a5fa" stroke-width="1.5" marker-end="url(#arwB)"/>
<text x="177" y="369" font-size="8" fill="#334155">parent_child</text>
<line x1="152" y1="380" x2="174" y2="380" stroke="#a78bfa" stroke-width="1.3" stroke-dasharray="3,2" marker-end="url(#arwP)"/>
<text x="177" y="384" font-size="8" fill="#334155">same_user</text>
<line x1="228" y1="365" x2="250" y2="365" stroke="#34d399" stroke-width="1.4" marker-end="url(#arwG)"/>
<text x="253" y="369" font-size="8" fill="#334155">touches</text>

<!-- SECTION B — HETEROSAGE FORWARD PASS -->
<rect x="320" y="62" width="330" height="340" rx="10" fill="white" stroke="#e2e8f0" stroke-width="1.2" filter="url(#shadow)"/>
<rect x="320" y="62" width="330" height="26" rx="10" fill="#0369a1" opacity="0.08"/>
<text x="485" y="80" text-anchor="middle" font-size="11" font-weight="700" fill="#0369a1" letter-spacing="0.5">② HETEROSAGE FORWARD PASS</text>

<text x="340" y="103" font-size="9" font-weight="600" fill="#64748b">Input features  x⁽⁰⁾</text>
<circle cx="380" cy="122" r="14" fill="url(#gProcess)" stroke="#93c5fd" stroke-width="1.3"/>
<text x="380" y="126" text-anchor="middle" font-size="8" font-weight="700" fill="#1e40af">P</text>
<circle cx="420" cy="122" r="14" fill="url(#gProcess)" stroke="#93c5fd" stroke-width="1.3"/>
<text x="420" y="126" text-anchor="middle" font-size="8" font-weight="700" fill="#1e40af">P</text>
<circle cx="460" cy="122" r="14" fill="url(#gProcess)" stroke="#93c5fd" stroke-width="1.3"/>
<text x="460" y="126" text-anchor="middle" font-size="8" font-weight="700" fill="#1e40af">P</text>
<rect x="492" y="108" width="28" height="28" rx="5" fill="url(#gFile)" stroke="#34d399" stroke-width="1.3"/>
<text x="506" y="126" text-anchor="middle" font-size="8" font-weight="700" fill="#065f46">F</text>
<rect x="530" y="108" width="28" height="28" rx="5" fill="url(#gFile)" stroke="#34d399" stroke-width="1.3"/>
<text x="544" y="126" text-anchor="middle" font-size="8" font-weight="700" fill="#065f46">F</text>

<rect x="335" y="155" width="90" height="48" rx="6" fill="url(#gSage)" stroke="#7dd3fc" stroke-width="1.3"/>
<text x="380" y="174" text-anchor="middle" font-size="8.5" font-weight="700" fill="#0369a1">SAGEConv</text>
<text x="380" y="187" text-anchor="middle" font-size="7.5" fill="#0284c7">parent_child</text>
<text x="380" y="198" text-anchor="middle" font-size="7" fill="#0369a1">θ₁  →  h⁽¹⁾</text>

<rect x="438" y="155" width="90" height="48" rx="6" fill="url(#gSage)" stroke="#7dd3fc" stroke-width="1.3"/>
<text x="483" y="174" text-anchor="middle" font-size="8.5" font-weight="700" fill="#0369a1">SAGEConv</text>
<text x="483" y="187" text-anchor="middle" font-size="7.5" fill="#0284c7">same_user</text>
<text x="483" y="198" text-anchor="middle" font-size="7" fill="#0369a1">θ₂  →  h⁽¹⁾</text>

<rect x="540" y="155" width="90" height="48" rx="6" fill="url(#gSage)" stroke="#7dd3fc" stroke-width="1.3"/>
<text x="585" y="174" text-anchor="middle" font-size="8.5" font-weight="700" fill="#0369a1">SAGEConv</text>
<text x="585" y="187" text-anchor="middle" font-size="7.5" fill="#0284c7">touches</text>
<text x="585" y="198" text-anchor="middle" font-size="7" fill="#0369a1">θ₃  →  h⁽¹⁾</text>

<line x1="380" y1="136" x2="380" y2="153" stroke="#60a5fa" stroke-width="1.2" marker-end="url(#arwB)"/>
<line x1="420" y1="136" x2="430" y2="153" stroke="#a78bfa" stroke-width="1.2" marker-end="url(#arwP)"/>
<line x1="506" y1="136" x2="506" y2="153" stroke="#34d399" stroke-width="1.2" marker-end="url(#arwG)"/>

<rect x="400" y="220" width="150" height="34" rx="7" fill="#f0f9ff" stroke="#7dd3fc" stroke-width="1.4"/>
<text x="475" y="235" text-anchor="middle" font-size="9" font-weight="700" fill="#0369a1">aggr = sum</text>
<text x="475" y="247" text-anchor="middle" font-size="8" fill="#0369a1">h⁽¹⁾ = Σ  SAGEConv_t(·)</text>

<line x1="380" y1="203" x2="430" y2="219" stroke="#94a3b8" stroke-width="1.1" marker-end="url(#arw)"/>
<line x1="483" y1="203" x2="475" y2="219" stroke="#94a3b8" stroke-width="1.1" marker-end="url(#arw)"/>
<line x1="570" y1="203" x2="527" y2="219" stroke="#94a3b8" stroke-width="1.1" marker-end="url(#arw)"/>

<rect x="420" y="267" width="110" height="26" rx="6" fill="#f0fdf4" stroke="#86efac" stroke-width="1.2"/>
<text x="475" y="284" text-anchor="middle" font-size="9" font-weight="600" fill="#15803d">ReLU  →  Layer 2 →  z⁽²⁾ ∈ ℝ⁴⁸</text>
<line x1="475" y1="254" x2="475" y2="265" stroke="#94a3b8" stroke-width="1.1" marker-end="url(#arw)"/>

<rect x="330" y="305" width="310" height="84" rx="8" fill="#f8fafc" stroke="#cbd5e1" stroke-width="1"/>
<text x="485" y="322" text-anchor="middle" font-size="9" font-weight="700" fill="#334155">SAGEConv for edge type t:</text>
<text x="340" y="337" font-size="8.5" fill="#475569">  agg  =  MEAN  {  h_v  :  v ∈ 𝒩_t(u)  }</text>
<text x="340" y="351" font-size="8.5" fill="#475569">  h_u  =  W · CONCAT( h_u , agg )  +  b</text>
<text x="340" y="365" font-size="8.5" fill="#475569">  h_u  =  ℓ2-normalize( h_u )</text>
<text x="340" y="381" font-size="8" fill="#94a3b8">  W, b are per-edge-type weights (θ_t). No shared weights across types.</text>

<!-- SECTION C — CONTRASTIVE LINK PREDICTION -->
<rect x="662" y="62" width="320" height="200" rx="10" fill="white" stroke="#e2e8f0" stroke-width="1.2" filter="url(#shadow)"/>
<rect x="662" y="62" width="320" height="26" rx="10" fill="#d97706" opacity="0.1"/>
<text x="822" y="80" text-anchor="middle" font-size="11" font-weight="700" fill="#b45309" letter-spacing="0.5">③ CONTRASTIVE LINK PREDICTION</text>

<rect x="672" y="94" width="140" height="76" rx="7" fill="url(#gReal)" stroke="#86efac" stroke-width="1.2"/>
<text x="742" y="110" text-anchor="middle" font-size="9" font-weight="700" fill="#14532d">Real Edge  (positive)</text>
<circle cx="705" cy="145" r="13" fill="url(#gProcess)" stroke="#4ade80" stroke-width="1.5"/>
<text x="705" y="149" text-anchor="middle" font-size="8" font-weight="700" fill="#14532d">P_u</text>
<circle cx="775" cy="145" r="13" fill="url(#gProcess)" stroke="#4ade80" stroke-width="1.5"/>
<text x="775" y="149" text-anchor="middle" font-size="8" font-weight="700" fill="#14532d">P_v</text>
<line x1="718" y1="145" x2="762" y2="145" stroke="#16a34a" stroke-width="2" marker-end="url(#arwG)"/>
<text x="742" y="162" text-anchor="middle" font-size="7.5" fill="#15803d">cos_sim → push HIGH → 1</text>

<rect x="832" y="94" width="140" height="76" rx="7" fill="url(#gFake)" stroke="#fca5a5" stroke-width="1.2"/>
<text x="902" y="110" text-anchor="middle" font-size="9" font-weight="700" fill="#7f1d1d">Random Edge  (negative)</text>
<circle cx="860" cy="145" r="13" fill="url(#gProcess)" stroke="#f87171" stroke-width="1.5"/>
<text x="860" y="149" text-anchor="middle" font-size="8" font-weight="700" fill="#7f1d1d">P_i</text>
<circle cx="930" cy="145" r="13" fill="url(#gProcess)" stroke="#f87171" stroke-width="1.5"/>
<text x="930" y="149" text-anchor="middle" font-size="8" font-weight="700" fill="#7f1d1d">P_j</text>
<line x1="873" y1="145" x2="917" y2="145" stroke="#ef4444" stroke-width="1.5" stroke-dasharray="5,3" marker-end="url(#arwR)"/>
<text x="902" y="162" text-anchor="middle" font-size="7.5" fill="#b91c1c">randint(0, N) × 2  → push LOW → 0</text>

<rect x="672" y="180" width="300" height="38" rx="7" fill="#fffbeb" stroke="#fcd34d" stroke-width="1.2"/>
<text x="822" y="196" text-anchor="middle" font-size="9" font-weight="700" fill="#78350f">score(u,v) = 5 · cos_sim( z_u , z_v )</text>
<text x="822" y="211" text-anchor="middle" font-size="8" fill="#92400e">ℒ = BCE(score_pos, 1) + BCE(score_neg, 0)    ·    no labels used</text>

<!-- SECTION D — MEAN POOL + SESSION EMBEDDING -->
<rect x="662" y="272" width="320" height="130" rx="10" fill="white" stroke="#e2e8f0" stroke-width="1.2" filter="url(#shadow)"/>
<rect x="662" y="272" width="320" height="26" rx="10" fill="#7c3aed" opacity="0.08"/>
<text x="822" y="290" text-anchor="middle" font-size="11" font-weight="700" fill="#5b21b6" letter-spacing="0.5">④ MEAN POOL → SESSION EMBEDDING</text>

<circle cx="690" cy="330" r="11" fill="url(#gProcess)" stroke="#93c5fd" stroke-width="1.2"/>
<text x="690" y="334" text-anchor="middle" font-size="7.5" font-weight="700" fill="#1e40af">z₁</text>
<circle cx="715" cy="318" r="11" fill="url(#gProcess)" stroke="#93c5fd" stroke-width="1.2"/>
<text x="715" y="322" text-anchor="middle" font-size="7.5" font-weight="700" fill="#1e40af">z₂</text>
<circle cx="740" cy="330" r="11" fill="url(#gProcess)" stroke="#93c5fd" stroke-width="1.2"/>
<text x="740" y="334" text-anchor="middle" font-size="7.5" font-weight="700" fill="#1e40af">z₃</text>
<path d="M678,345 Q714,352 752,345" stroke="#94a3b8" stroke-width="1" fill="none"/>
<text x="715" y="363" text-anchor="middle" font-size="8" fill="#64748b">session S processes</text>
<line x1="752" y1="325" x2="784" y2="325" stroke="#94a3b8" stroke-width="1.2" marker-end="url(#arw)"/>
<text x="768" y="318" text-anchor="middle" font-size="8" fill="#64748b">mean</text>
<rect x="786" y="308" width="80" height="34" rx="6" fill="url(#gEmbed)" stroke="#2dd4bf" stroke-width="1.4"/>
<text x="826" y="323" text-anchor="middle" font-size="8.5" font-weight="700" fill="#134e4a">e_S ∈ ℝ⁴⁸</text>
<text x="826" y="336" text-anchor="middle" font-size="7.5" fill="#0f766e">ℓ2 norm</text>
<text x="822" y="360" text-anchor="middle" font-size="8" fill="#64748b">× 3 seeds  →  concat  →  e_S ∈ ℝ¹⁴⁴  →  StandardScaler</text>
<text x="822" y="373" text-anchor="middle" font-size="8" fill="#64748b">session-level representation for all downstream tasks</text>
<text x="822" y="386" text-anchor="middle" font-size="8" fill="#64748b">no label leakage — labels used only in evaluation</text>

<!-- SECTION E — COSINE STEERING -->
<rect x="18" y="415" width="964" height="230" rx="10" fill="white" stroke="#e2e8f0" stroke-width="1.2" filter="url(#shadow)"/>
<rect x="18" y="415" width="964" height="26" rx="10" fill="#7c3aed" opacity="0.08"/>
<text x="500" y="433" text-anchor="middle" font-size="11" font-weight="700" fill="#5b21b6" letter-spacing="0.5">⑤ COSINE STEERING — ONE-ANCHOR RETRIEVAL</text>

<rect x="34" y="452" width="110" height="80" rx="8" fill="#f5f3ff" stroke="#c4b5fd" stroke-width="1.6"/>
<circle cx="89" cy="476" r="16" fill="#7c3aed" opacity="0.15" stroke="#7c3aed" stroke-width="1.5"/>
<text x="89" y="472" text-anchor="middle" font-size="9" font-weight="700" fill="#4c1d95">anchor</text>
<text x="89" y="484" text-anchor="middle" font-size="7.5" fill="#6d28d9">session S*</text>
<text x="89" y="502" text-anchor="middle" font-size="8" font-weight="600" fill="#4c1d95">1 confirmed</text>
<text x="89" y="514" text-anchor="middle" font-size="8" fill="#6d28d9">malicious session</text>
<text x="89" y="528" text-anchor="middle" font-size="13" fill="#7c3aed">★</text>

<line x1="145" y1="492" x2="185" y2="492" stroke="#a78bfa" stroke-width="1.5" marker-end="url(#arwP)"/>

<rect x="187" y="458" width="155" height="68" rx="8" fill="#faf5ff" stroke="#c4b5fd" stroke-width="1.3"/>
<text x="264" y="476" text-anchor="middle" font-size="9.5" font-weight="700" fill="#4c1d95">Cosine Similarity</text>
<text x="264" y="492" text-anchor="middle" font-size="9" fill="#5b21b6">sim(S*, Sᵢ) = ê_S* · ê_Sᵢ</text>
<text x="264" y="506" text-anchor="middle" font-size="8" fill="#7c3aed">unit-norm embeddings</text>
<text x="264" y="518" text-anchor="middle" font-size="8" fill="#7c3aed">computed over all sessions</text>

<line x1="343" y1="492" x2="378" y2="492" stroke="#a78bfa" stroke-width="1.5" marker-end="url(#arwP)"/>

<rect x="380" y="448" width="130" height="120" rx="8" fill="#faf5ff" stroke="#c4b5fd" stroke-width="1.3"/>
<text x="445" y="466" text-anchor="middle" font-size="9" font-weight="700" fill="#4c1d95">Ranked Queue</text>
<line x1="393" y1="471" x2="497" y2="471" stroke="#e9d5ff" stroke-width="0.8"/>
<rect x="390" y="476" width="112" height="14" rx="3" fill="#f87171" opacity="0.3"/>
<text x="398" y="487" font-size="8" fill="#7f1d1d">🔴 #1  sim=0.94  malicious</text>
<rect x="390" y="493" width="112" height="14" rx="3" fill="#93c5fd" opacity="0.3"/>
<text x="398" y="504" font-size="8" fill="#1e3a8a">🔵 #2  sim=0.91  benign</text>
<rect x="390" y="510" width="112" height="14" rx="3" fill="#f87171" opacity="0.3"/>
<text x="398" y="521" font-size="8" fill="#7f1d1d">🔴 #3  sim=0.89  malicious</text>
<rect x="390" y="527" width="112" height="14" rx="3" fill="#93c5fd" opacity="0.3"/>
<text x="398" y="538" font-size="8" fill="#1e3a8a">🔵 #4  sim=0.85  benign</text>
<rect x="390" y="544" width="112" height="14" rx="3" fill="#f87171" opacity="0.25"/>
<text x="398" y="555" font-size="7.5" fill="#7f1d1d">🔴  …</text>

<line x1="511" y1="492" x2="546" y2="492" stroke="#a78bfa" stroke-width="1.5" marker-end="url(#arwP)"/>

<rect x="548" y="448" width="180" height="120" rx="8" fill="#f5f3ff" stroke="#c4b5fd" stroke-width="1.3"/>
<text x="638" y="466" text-anchor="middle" font-size="9" font-weight="700" fill="#4c1d95">Evaluation Metrics</text>
<line x1="560" y1="471" x2="716" y2="471" stroke="#e9d5ff" stroke-width="0.8"/>
<text x="560" y="485" font-size="8.5" fill="#334155">  AP (avg precision)     0.140</text>
<text x="560" y="499" font-size="8.5" fill="#334155">  recall @ 25               0.255</text>
<text x="560" y="513" font-size="8.5" fill="#334155">  recall @ 50               0.408</text>
<text x="560" y="527" font-size="8.5" fill="#334155">  recall @ 100             0.466</text>
<text x="560" y="543" font-size="8" fill="#64748b">  vs random AP           0.006</text>
<text x="560" y="557" font-size="8" fill="#64748b">  Wilcoxon p             &lt; 0.0005</text>

<line x1="729" y1="492" x2="764" y2="492" stroke="#a78bfa" stroke-width="1.5" marker-end="url(#arwP)"/>

<rect x="766" y="448" width="200" height="120" rx="8" fill="#f8fafc" stroke="#cbd5e1" stroke-width="1.2"/>
<text x="866" y="466" text-anchor="middle" font-size="9" font-weight="700" fill="#334155">Ablation Controls</text>
<line x1="778" y1="471" x2="954" y2="471" stroke="#e2e8f0" stroke-width="0.8"/>
<rect x="778" y="477" width="8" height="8" rx="1" fill="#86efac"/>
<text x="792" y="485" font-size="8" fill="#334155">real-edge SAGE (no host)   0.140</text>
<rect x="778" y="492" width="8" height="8" rx="1" fill="#fca5a5"/>
<text x="792" y="500" font-size="8" fill="#334155">shuffled-edge SAGE          0.031</text>
<rect x="778" y="507" width="8" height="8" rx="1" fill="#fde68a"/>
<text x="792" y="515" font-size="8" fill="#334155">node stats baseline            0.066</text>
<rect x="778" y="522" width="8" height="8" rx="1" fill="#e2e8f0"/>
<text x="792" y="530" font-size="8" fill="#334155">random ranking                  0.006</text>
<text x="866" y="548" text-anchor="middle" font-size="8" fill="#64748b">All 19 anchors × 3 seeds</text>
<text x="866" y="560" text-anchor="middle" font-size="8" fill="#64748b">paired Wilcoxon one-sided</text>

<line x1="485" y1="402" x2="485" y2="413" stroke="#a78bfa" stroke-width="1.3" stroke-dasharray="4,2" marker-end="url(#arwP)"/>
<line x1="311" y1="232" x2="319" y2="232" stroke="#60a5fa" stroke-width="1.4" marker-end="url(#arwB)"/>

<text x="500" y="762" text-anchor="middle" font-size="8.5" fill="#94a3b8">Self-supervised: no process labels used in graph construction, GNN training, embedding, or retrieval. Labels appear only in final evaluation (§⑤ metrics and controls).</text>
</svg>
